<svg version="1.1" id="icon_twitter" xmlns="http://www.w3.org/2000/svg" xmlns:xlink="http://www.w3.org/1999/xlink" x="0px"
	 y="0px" viewBox="0 0 30 30" style="enable-background:new 0 0 30 30;" xml:space="preserve">
<path class="st0" d="M22.1,10.2c-0.5,0.3-1.1,0.4-1.7,0.5c0.6-0.4,1.1-1,1.3-1.7c-0.6,0.3-1.2,0.6-1.9,0.8c-0.6-0.6-1.3-1-2.1-1
	c-1.6,0-3,1.4-3,3.2c0,0.2,0,0.5,0.1,0.7c-2.5-0.1-4.7-1.4-6.1-3.3c-0.3,0.4-0.4,1-0.4,1.6c0,1.1,0.5,2.1,1.3,2.6
	c-0.5,0-1-0.2-1.3-0.4v0.1c0,1.5,1,2.8,2.4,3.1c-0.2,0.1-0.5,0.1-0.8,0.1c-0.2,0-0.4,0-0.6-0.1c0.4,1.3,1.5,2.2,2.8,2.2
	c-1,0.8-2.3,1.3-3.7,1.3c-0.2,0-0.4,0-0.7-0.1c1.3,0.9,2.9,1.5,4.6,1.5c5.4,0,8.4-4.8,8.4-9c0-0.1,0-0.3,0-0.4
	C21.2,11.4,21.7,10.8,22.1,10.2z M14.9,1.5c7.5,0,13.5,6,13.5,13.5s-6,13.5-13.5,13.5S1.4,22.5,1.4,15S7.4,1.5,14.9,1.5z"/>
</svg>
